<svg width="169" height="48" viewBox="0 0 169 48" fill="none" xmlns="http://www.w3.org/2000/svg">
<path fill-rule="evenodd" clip-rule="evenodd" d="M0 41.5887L0 0L22.5 20.7944L45 41.5887L0 41.5887Z" fill="#2E4FD7"/>
<path fill-rule="evenodd" clip-rule="evenodd" d="M51 6.16129V47.75L28.5 26.9556L6 6.16129L51 6.16129Z" fill="#46BA71"/>
<path d="M76.672 16.2H61.672V18.408C62.584 17.88 63.688 17.304 65.704 17.304H67.096V29.208C67.096 30.456 66.904 31.464 66.424 33H71.92C71.416 31.416 71.224 30.408 71.224 29.208V17.304H72.64C74.656 17.304 75.76 17.88 76.672 18.408V16.2ZM91.1838 20.64C91.7118 21.816 91.3038 23.136 90.9198 24.312L89.5038 28.44L87.7278 23.712C87.3438 22.704 87.1758 21.552 87.6558 20.64H82.4478L84.0078 24.336L82.6158 28.44L80.8398 23.712C80.4558 22.656 80.2638 21.552 80.7438 20.64H75.5598L80.7198 33H81.7518L84.6078 25.776L87.6318 33H88.6398L93.5118 20.64H91.1838ZM106.191 26.256C106.191 23.088 104.295 20.304 100.359 20.304C96.3991 20.304 93.9511 23.112 93.9511 26.808C93.9511 30.48 96.4231 33.312 100.719 33.312C103.407 33.312 105.303 32.256 106.143 30.864L103.959 29.088C103.167 30.984 102.351 32.184 100.887 32.184C98.9671 32.184 98.0551 30.12 98.0551 26.808H106.191V26.256ZM98.0791 25.704C98.2231 22.8 98.9671 21.408 100.359 21.408C101.895 21.408 102.615 23.16 102.615 25.704H98.0791ZM114.083 20.304C111.707 20.304 109.331 21.216 108.347 23.616L111.203 24.504C111.635 22.44 112.259 21.408 113.675 21.408C115.043 21.408 115.859 22.272 115.859 24.096V25.56L113.603 25.968C110.579 26.52 108.059 27.6 108.059 30.072C108.059 32.112 109.835 33.312 111.947 33.312C114.035 33.312 115.547 32.136 116.291 30.168L117.923 33H119.843V25.176C119.843 21.648 116.963 20.304 114.083 20.304ZM113.411 31.872C112.547 31.872 111.851 31.152 111.851 29.952C111.851 28.44 112.979 27.144 114.635 26.664L115.859 26.304V26.952C115.859 30.24 114.755 31.872 113.411 31.872ZM126.711 29.424V15.24H122.031C122.439 16.44 122.727 17.472 122.727 18.816V29.424C122.727 30.528 122.559 31.488 122.031 33H127.407C126.999 31.8 126.711 30.768 126.711 29.424ZM130.143 25.128L134.439 20.616H131.895C131.991 21.144 131.943 21.84 131.055 22.752L127.023 26.856L130.023 30.624C130.815 31.656 130.767 32.352 130.551 33H136.119L130.143 25.128ZM142.98 17.688C144.108 17.688 144.972 17.928 145.788 18.24L146.604 15.6C145.884 15.24 144.756 14.928 143.46 14.928C140.1 14.928 138.396 17.184 138.396 19.968V20.616H136.524V21.72H138.396V29.424C138.396 30.528 138.204 31.488 137.7 33H143.076C142.668 31.8 142.38 30.768 142.38 29.424V21.72H145.26V20.616H141.636C140.124 20.616 139.788 19.92 139.788 19.392C139.788 18.312 141.324 17.688 142.98 17.688ZM154.869 20.616C155.253 21.816 155.565 22.848 155.565 24.192V28.152C155.565 29.76 154.869 31.872 153.213 31.872C152.133 31.872 151.293 30.936 151.293 29.016V20.616H146.613C146.997 21.816 147.309 22.848 147.309 24.192V28.752C147.309 31.776 149.133 33.312 151.605 33.312C154.005 33.312 155.397 31.896 155.925 30.048L157.653 33H159.549V20.616H154.869ZM162.852 18.816V29.424C162.852 30.528 162.684 31.488 162.156 33H167.532C167.124 31.8 166.836 30.768 166.836 29.424V15.24H162.156C162.564 16.44 162.852 17.472 162.852 18.816Z" fill="#1A1A1A"/>
</svg>
